<?xml version="1.0" encoding="UTF-8"?>
<svg width="911px" height="518px" viewBox="0 0 911 518" version="1.1" xmlns="http://www.w3.org/2000/svg" xmlns:xlink="http://www.w3.org/1999/xlink">
    <title>Untitled</title>
    <g id="Page-1" stroke="none" stroke-width="1" fill="none" fill-rule="evenodd">
        <rect id="Rectangle" stroke="#979797" fill="#FA6400" x="408.5" y="18.5" width="97" height="494" rx="36"></rect>
        <rect id="Rectangle" stroke="#979797" fill="#FA6400" stroke-linejoin="round" transform="translate(229.001904, 259.218155) rotate(-1.000000) translate(-229.001904, -259.218155) " x="5.00190381" y="5.21815508" width="448" height="508" rx="36"></rect>
        <rect id="Rectangle" stroke="#979797" fill="#FA6400" stroke-linejoin="round" transform="translate(682.001904, 259.218155) rotate(1.000000) translate(-682.001904, -259.218155) " x="458.001904" y="5.21815508" width="448" height="508" rx="36"></rect>
        <rect id="Rectangle" stroke="#979797" fill="#D8D8D8" x="442.5" y="39.5" width="24" height="458"></rect>
        <rect id="Rectangle" stroke="#979797" fill="#D8D8D8" transform="translate(238.500000, 259.000000) rotate(-1.000000) translate(-238.500000, -259.000000) " x="24.5" y="9.5" width="428" height="499" rx="36"></rect>
        <rect id="Rectangle" stroke="#979797" fill="#D8D8D8" transform="translate(672.500000, 259.000000) rotate(1.000000) translate(-672.500000, -259.000000) " x="458.5" y="9.5" width="428" height="499" rx="36"></rect>
        <rect id="Rectangle" stroke="#979797" fill="#D8D8D8" transform="translate(245.000000, 260.000000) rotate(-1.000000) translate(-245.000000, -260.000000) " x="37.5" y="10.5" width="415" height="499" rx="36"></rect>
        <rect id="Rectangle" stroke="#979797" fill="#D8D8D8" transform="translate(666.000000, 260.000000) rotate(1.000000) translate(-666.000000, -260.000000) " x="458.5" y="10.5" width="415" height="499" rx="36"></rect>
        <rect id="Rectangle" stroke="#979797" fill="#D8D8D8" transform="translate(252.000000, 259.000000) rotate(-1.000000) translate(-252.000000, -259.000000) " x="51.5" y="9.5" width="401" height="499" rx="36"></rect>
        <rect id="Rectangle" stroke="#979797" fill="#D8D8D8" transform="translate(659.000000, 260.000000) rotate(1.000000) translate(-659.000000, -260.000000) " x="458.5" y="10.5" width="401" height="499" rx="36"></rect>
    </g>
</svg>