<?xml version="1.0" ?>
<svg data-name="Multimedia 3" height="60" id="Multimedia_3" viewBox="0 0 60 60" width="60" xmlns="http://www.w3.org/2000/svg"><title/><path d="M7,10.97H3v38H22c4.41829,0,8,1.5817,8,6,0-4.4183,3.58169-6,8-6H57v-38H53" style="fill:#ffd599"/><polygon points="53 10.97 7 10.97 3 10.97 3 13.97 7 13.97 53 13.97 57 13.97 57 10.97 53 10.97" style="fill:#fff;opacity:0.5"/><path d="M30,51.97c0-4.41827-3.58173-6-8-6H3v3H22c4.41827,0,8,1.58173,8,6,0-4.41827,3.58167-6,8-6H57v-3H38C33.58167,45.97,30,47.5517,30,51.97Z" style="fill:#750000;opacity:0.2"/><path d="M30,55.97021a1,1,0,0,1-1-1c0-3.31787-2.355-5-7-5H3a1,1,0,0,1-1-1v-38a1,1,0,0,1,1-1H7a1,1,0,1,1,0,2H4v36H22c3.87061,0,6.62451,1.16846,8,3.30273,1.37549-2.13428,4.12939-3.30273,8-3.30273H56v-36H53a1,1,0,1,1,0-2h4a1,1,0,0,1,1,1v38a1,1,0,0,1-1,1H38c-4.645,0-7,1.68213-7,5A1,1,0,0,1,30,55.97021Z" style="fill:#6d6daa"/><path d="M35,6.97a5,5,0,0,0-5,5,5,5,0,0,0-5-5H7v38H22c4.41829,0,8,1.5817,8,6,0-4.4183,3.58169-6,8-6H53v-38Z" style="fill:#fff"/><path d="M35,6.97h3a5,5,0,0,0-5,5v33.973a5.199,5.199,0,0,0-3,5.027v-39A5,5,0,0,1,35,6.97Z" style="fill:#2c4b75;opacity:0.2"/><path d="M30,47.97c0-4.41827-3.58173-6-8-6H7v3H22c4.41827,0,8,1.58173,8,6,0-4.41827,3.58167-6,8-6H53v-3H38C33.58167,41.97,30,43.5517,30,47.97Z" style="fill:#2c4b75;opacity:0.2"/><path d="M25,6.97H22a5,5,0,0,1,5,5v33.973a5.199,5.199,0,0,1,3,5.027v-39A5,5,0,0,0,25,6.97Z" style="fill:#2c4b75;opacity:0.2"/><path d="M30,51.97021a1,1,0,0,1-1-1c0-3.31787-2.355-5-7-5H7a1,1,0,0,1-1-1v-38a1,1,0,0,1,1-1H25a5.999,5.999,0,0,1,5,2.68652,5.999,5.999,0,0,1,5-2.68652H53a1,1,0,0,1,1,1v38a1,1,0,0,1-1,1H38c-4.645,0-7,1.68213-7,5A1,1,0,0,1,30,51.97021Zm-22-8H22c3.87061,0,6.62451,1.16846,8,3.30273,1.37549-2.13428,4.12939-3.30273,8-3.30273H52v-36H35a4.00458,4.00458,0,0,0-4,4,1,1,0,0,1-2,0,4.00458,4.00458,0,0,0-4-4H8Z" style="fill:#6d6daa"/><path d="M30,55.97021a1,1,0,0,1-1-1v-45a1,1,0,1,1,2,0v45A1,1,0,0,1,30,55.97021Z" style="fill:#6d6daa"/><path d="M47,23.97021a1.00033,1.00033,0,0,1-.7998-.3999L44,20.63672l-2.2002,2.93359A.99988.99988,0,0,1,40,22.97021v-15a1,1,0,0,1,1-1h6a1,1,0,0,1,1,1v15a.99962.99962,0,0,1-1,1Z" style="fill:#2c4b75;opacity:0.2"/><polygon points="41 6.97 41 20.97 44 16.97 47 20.97 47 6.97 41 6.97" style="fill:#ff99b1"/><rect height="3" style="fill:#fff;opacity:0.5" width="6" x="41" y="6.96997"/><path d="M47,21.97021a1.00033,1.00033,0,0,1-.7998-.3999L44,18.63672l-2.2002,2.93359A.99988.99988,0,0,1,40,20.97021v-14a1,1,0,0,1,1-1h6a1,1,0,0,1,1,1v14a.99962.99962,0,0,1-1,1Zm-3-6a.99832.99832,0,0,1,.7998.3999L46,17.97021v-10H42v10l1.2002-1.6001A.99832.99832,0,0,1,44,15.97021Z" style="fill:#6d6daa"/><path d="M20,15.97021H17a1,1,0,0,1,0-2h3a1,1,0,0,1,0,2Z" style="fill:#6d6daa;opacity:0.5"/><path d="M24,21.97021H13a1,1,0,1,1,0-2H24a1,1,0,0,1,0,2Z" style="fill:#6d6daa;opacity:0.5"/><path d="M24,27.97021H13a1,1,0,1,1,0-2H24a1,1,0,0,1,0,2Z" style="fill:#6d6daa;opacity:0.5"/><path d="M24,33.97021H13a1,1,0,1,1,0-2H24a1,1,0,1,1,0,2Z" style="fill:#6d6daa;opacity:0.5"/><path d="M24,39.97021H13a1,1,0,0,1,0-2H24a1,1,0,0,1,0,2Z" style="fill:#6d6daa;opacity:0.5"/><path d="M47,27.97021H36a1,1,0,0,1,0-2H47a1,1,0,0,1,0,2Z" style="fill:#6d6daa;opacity:0.5"/><path d="M47,33.97021H36a1,1,0,0,1,0-2H47a1,1,0,1,1,0,2Z" style="fill:#6d6daa;opacity:0.5"/><path d="M47,39.97021H36a1,1,0,0,1,0-2H47a1,1,0,0,1,0,2Z" style="fill:#6d6daa;opacity:0.5"/></svg>