<?xml version="1.0" standalone="no"?>
<svg version="1.0" xmlns="http://www.w3.org/2000/svg"
 width="100%" height="100%" viewBox="0 0 100 100"
 preserveAspectRatio="xMidYMid meet">
<metadata>
Created by potrace 1.10, written by Peter Selinger 2001-2011
</metadata>
<g transform="translate(0.000000,180.000000) scale(0.100000,-0.100000)"
fill="#000000" stroke="none">
<path d="M1492 1645 c-2 -147 -4 -162 -22 -178 -11 -9 -26 -17 -34 -17 -17 0
-76 -54 -76 -69 0 -7 44 -11 135 -11 126 0 135 1 126 18 -13 25 -41 47 -83 67
l-38 17 -3 167 -3 166 -2 -160z m53 -213 c27 -15 49 -31 47 -37 -1 -6 -43 -10
-99 -10 -112 0 -125 11 -58 50 51 30 50 30 110 -3z"/>
<path d="M1690 1225 l0 -255 545 0 545 0 0 255 0 255 -545 0 -545 0 0 -255z
m1070 0 l0 -235 -530 0 -530 0 0 235 0 235 530 0 530 0 0 -235z"/>
<path d="M1848 1413 c7 -3 16 -2 19 1 4 3 -2 6 -13 5 -11 0 -14 -3 -6 -6z"/>
<path d="M1893 1413 c9 -2 25 -2 35 0 9 3 1 5 -18 5 -19 0 -27 -2 -17 -5z"/>
<path d="M2138 1413 c7 -3 16 -2 19 1 4 3 -2 6 -13 5 -11 0 -14 -3 -6 -6z"/>
<path d="M1741 1384 c0 -11 3 -14 6 -6 3 7 2 16 -1 19 -3 4 -6 -2 -5 -13z"/>
<path d="M2472 1313 c-7 -3 -19 -18 -28 -34 l-15 -30 -344 3 -345 3 0 -77 0
-78 139 0 c77 0 142 3 144 8 3 4 -54 6 -126 5 -72 -1 -133 0 -136 2 -4 2 -4
30 -3 64 l4 61 339 -1 c292 0 342 2 355 16 9 8 13 15 9 15 -17 0 26 30 49 34
19 3 33 -3 55 -25 16 -16 32 -29 35 -29 12 0 -24 58 -39 64 -19 7 -74 7 -93
-1z"/>
<path d="M2523 1263 c9 -2 23 -2 30 0 6 3 -1 5 -18 5 -16 0 -22 -2 -12 -5z"/>
<path d="M2612 1242 c-7 -5 8 -8 35 -8 l48 1 3 -42 3 -42 -63 -4 -63 -3 73 -2
72 -2 0 55 0 55 -47 0 c-27 0 -54 -4 -61 -8z"/>
<path d="M2450 1209 c0 -5 5 -7 10 -4 6 3 10 8 10 11 0 2 -4 4 -10 4 -5 0 -10
-5 -10 -11z"/>
<path d="M2486 1163 c17 -17 15 -18 -32 -24 -49 -6 -48 -6 17 -7 53 -2 70 2
89 18 13 11 18 20 12 20 -6 0 -14 -4 -17 -10 -10 -15 -52 -12 -59 5 -3 8 -10
15 -16 15 -6 0 -4 -8 6 -17z"/>
<path d="M2278 1123 c23 -2 59 -2 80 0 20 2 1 4 -43 4 -44 0 -61 -2 -37 -4z"/>
<path d="M2083 1113 c26 -2 68 -2 95 0 26 2 4 3 -48 3 -52 0 -74 -1 -47 -3z"/>
<path d="M2712 1100 c0 -14 2 -19 5 -12 2 6 2 18 0 25 -3 6 -5 1 -5 -13z"/>
<path d="M2710 1055 c0 -10 -17 -15 -67 -18 l-68 -3 73 -2 c66 -2 72 0 72 18
0 11 -2 20 -5 20 -3 0 -5 -7 -5 -15z"/>
<path d="M1740 1048 c0 -15 8 -18 53 -16 l52 1 -45 4 c-24 3 -48 10 -52 16 -5
8 -8 6 -8 -5z"/>
<path d="M1915 1039 c-38 -3 65 -6 229 -7 165 -1 296 1 292 5 -8 9 -423 10
-521 2z"/>
<path d="M2478 1033 c17 -2 47 -2 65 0 17 2 3 4 -33 4 -36 0 -50 -2 -32 -4z"/>
<path d="M270 850 c0 -346 4 -610 9 -610 5 0 11 -9 14 -21 6 -23 27 -17 27 7
0 12 49 14 323 16 221 1 282 3 193 7 -90 4 -131 10 -133 18 -4 10 -8 9 -20 -2
-15 -16 -41 -19 -67 -9 -13 5 -16 24 -17 103 -1 74 -3 89 -10 66 -13 -43 -19
-148 -9 -160 5 -7 -30 -11 -103 -12 -61 0 -128 -4 -149 -7 l-38 -6 0 116 0
116 25 -4 c20 -4 23 -3 14 8 -6 8 -15 11 -20 8 -5 -3 -9 0 -9 5 0 7 51 11 149
11 110 0 151 3 154 13 4 9 6 9 6 0 1 -16 151 -18 151 -3 0 6 23 9 53 9 l52 -2
-40 -8 c-38 -7 -38 -7 10 -4 28 2 67 6 89 10 24 4 36 3 32 -3 -3 -5 3 -12 14
-15 13 -3 20 -14 20 -30 0 -20 -4 -23 -25 -19 -16 3 -25 0 -25 -8 0 -9 -4 -9
-17 1 -11 10 -14 10 -9 2 10 -18 -12 -16 -30 2 -9 8 -22 15 -29 15 -7 0 -20
-7 -29 -15 -15 -16 -31 -21 -22 -7 2 4 1 14 -3 21 -5 7 -13 -17 -20 -60 -14
-85 -10 -99 8 -29 7 28 17 50 23 50 5 0 6 -4 3 -10 -3 -5 -2 -24 2 -42 13 -51
6 -78 -22 -78 -13 0 -26 6 -28 13 -3 6 -6 2 -6 -10 -1 -13 -6 -23 -11 -23 -10
0 -9 9 11 144 9 61 6 84 -6 47 -7 -22 -25 -29 -25 -10 0 7 -10 9 -27 4 -43
-12 -64 -8 -79 13 -20 29 -159 28 -191 -1 -16 -14 -35 -19 -68 -19 -38 1 -45
-2 -45 -18 0 -16 7 -20 36 -20 21 0 33 4 29 10 -3 6 1 10 10 10 9 0 13 -4 10
-10 -3 -6 -1 -10 4 -10 6 0 11 9 11 21 0 15 5 19 15 15 9 -3 15 0 15 8 0 8 7
16 15 20 11 4 15 -2 15 -23 0 -15 3 -56 6 -90 6 -52 4 -61 -9 -61 -13 0 -17
13 -20 63 -3 51 -3 47 -4 -23 0 -47 1 -77 4 -67 3 13 15 17 49 17 28 0 43 4
39 10 -3 6 -1 10 5 10 6 0 8 5 5 10 -7 12 15 160 24 160 15 -1 30 -18 36 -43
7 -27 25 -38 25 -14 0 8 4 7 11 -3 8 -11 12 -12 16 -2 2 6 18 12 34 12 l29 0
0 -85 0 -85 45 0 c33 0 45 4 45 15 0 8 5 15 10 15 6 0 10 -7 10 -15 0 -12 16
-15 80 -15 l80 0 0 140 0 140 -360 0 c-303 0 -360 2 -360 14 0 9 7 12 18 9 16
-4 18 5 20 76 1 51 -2 81 -9 81 -6 0 -9 17 -7 43 l3 42 80 6 c44 4 100 3 125
-1 25 -5 50 -4 56 1 12 10 114 6 132 -5 7 -4 12 -3 12 2 0 5 27 9 60 9 34 0
57 -4 53 -10 -3 -5 3 -4 14 1 12 7 25 7 34 2 7 -5 22 -7 32 -4 9 3 17 1 17 -5
0 -7 -27 -11 -67 -12 -118 -2 -135 -4 -148 -22 -7 -9 -17 -17 -24 -17 -6 0
-11 -6 -11 -14 0 -8 7 -13 16 -12 9 0 19 -5 21 -11 3 -8 -4 -13 -16 -13 -19 0
-21 -6 -21 -65 0 -58 -2 -65 -20 -65 -11 0 -20 7 -20 15 0 8 6 15 13 15 7 0 8
3 2 8 -5 4 -10 13 -11 20 -2 30 -5 33 -26 30 -21 -3 -23 1 -21 35 1 20 -3 35
-8 32 -5 -4 -9 -1 -9 4 0 6 5 11 10 11 15 0 12 19 -5 36 -13 14 -15 7 -15 -61
0 -48 -4 -74 -10 -70 -5 3 -10 1 -10 -4 0 -6 -4 -11 -10 -11 -14 0 -12 37 3
43 9 4 9 8 1 14 -7 4 -14 17 -17 28 -5 19 -5 19 -6 -1 -1 -22 -31 -30 -31 -8
0 7 -3 20 -7 30 -5 15 -2 16 30 11 34 -5 37 -4 37 19 0 13 -4 24 -10 24 -5 0
-10 -7 -10 -15 0 -21 -66 -21 -74 0 -7 19 -30 19 -46 0 -7 -9 -29 -15 -51 -15
-22 0 -39 -4 -39 -10 0 -5 17 -10 38 -10 l37 0 -3 -90 c-3 -83 -5 -90 -22 -85
-10 3 -21 2 -23 -3 -3 -4 6 -8 21 -7 23 0 27 5 30 33 4 43 32 44 32 1 0 -16 4
-28 8 -25 11 7 16 146 5 146 -5 0 -8 -15 -7 -34 1 -22 -3 -37 -12 -40 -16 -6
-18 22 -8 97 5 34 10 44 21 40 8 -3 13 -14 10 -24 -4 -14 0 -19 13 -19 16 0
18 -9 17 -80 0 -44 3 -83 6 -87 4 -3 7 7 7 23 0 23 5 30 20 31 11 1 18 -2 15
-7 -3 -6 1 -7 9 -4 9 3 16 10 16 16 0 5 5 6 10 3 6 -3 10 -19 10 -36 0 -20 5
-29 16 -29 9 0 14 6 11 13 -3 8 -1 20 4 28 7 12 9 12 10 -1 1 -8 1 -21 0 -28
-2 -10 13 -12 56 -10 l58 3 3 101 3 100 29 -4 30 -4 0 -99 0 -99 70 0 70 0 0
55 c0 42 3 55 15 55 11 0 15 -12 15 -50 0 -49 1 -50 30 -50 l30 0 0 -161 c0
-152 -1 -161 -20 -166 -21 -6 -27 -28 -9 -38 6 -4 13 2 16 14 3 12 9 21 14 21
5 0 9 264 9 610 l0 610 -375 0 -375 0 0 -610z m736 410 c1 -102 -1 -170 -3
-152 l-4 32 -360 0 c-233 0 -359 4 -359 10 0 6 5 10 10 10 6 0 10 6 9 13 -1 6
-1 54 0 105 l1 92 30 0 c38 0 40 -19 3 -21 -27 -2 -27 -2 -3 -6 25 -4 25 -5
23 -95 -1 -66 2 -87 10 -79 15 15 54 14 60 -1 3 -7 6 31 6 85 1 89 3 97 20 97
18 0 19 -8 20 -91 1 -94 4 -110 24 -108 9 0 9 2 0 6 -9 3 -13 36 -13 114 0 90
3 109 15 109 12 0 15 -20 16 -112 1 -62 4 -103 6 -90 2 12 12 23 21 23 15 1
15 2 0 6 -15 4 -18 17 -18 88 0 79 1 84 23 88 12 2 2 5 -23 5 -25 1 -53 -5
-64 -13 -17 -13 -57 -12 -96 2 -8 3 -26 5 -39 4 -16 -2 -22 2 -19 11 4 10 70
13 344 13 l339 0 3 -37 c3 -37 2 -38 -29 -38 -40 0 -32 -11 10 -14 l31 -2 0
63 0 63 -360 3 -360 2 362 0 363 0 1 -185z m-586 10 c0 -79 0 -80 -25 -80 -25
0 -25 1 -25 80 0 79 0 80 25 80 25 0 25 -1 25 -80z m473 -153 c-4 -6 -1 -7 8
-2 19 12 49 14 55 3 3 -4 9 -6 14 -3 10 6 22 -23 14 -36 -3 -5 2 -9 10 -9 12
0 14 -5 7 -22 -9 -22 -35 -168 -32 -178 0 -3 7 -5 14 -5 8 0 14 25 18 75 4 55
6 34 6 -78 0 -84 -4 -155 -8 -158 -5 -3 -9 -30 -9 -60 0 -41 -4 -54 -15 -54
-10 0 -15 10 -15 33 0 47 -10 77 -26 77 -8 0 -14 7 -14 15 0 8 7 15 15 15 8 0
15 -4 15 -10 0 -5 11 -10 25 -10 14 0 25 5 25 10 0 6 -11 10 -24 10 -13 0 -26
5 -28 11 -2 5 -26 11 -53 11 -28 1 -56 6 -62 11 -16 12 -17 -11 -3 -33 9 -13
11 -13 20 0 8 12 10 11 10 -7 0 -14 -6 -23 -15 -23 -8 0 -15 -5 -15 -11 0 -6
6 -9 13 -6 10 4 14 -6 14 -37 0 -34 -4 -42 -19 -42 -16 0 -18 9 -18 68 0 39
-4 68 -10 68 -5 0 -10 8 -10 19 0 16 10 20 68 24 37 4 78 7 91 9 14 2 26 -3
29 -11 3 -8 0 -11 -7 -7 -6 4 -11 3 -11 -2 0 -6 7 -12 15 -16 12 -4 15 4 15
39 l0 45 -360 0 c-310 0 -360 2 -360 15 0 8 6 12 15 9 12 -5 13 12 8 114 -4
88 -3 121 6 127 7 4 118 7 247 8 129 0 237 3 239 7 2 3 26 6 54 6 29 0 47 -4
44 -9z m94 -229 c-3 -8 -6 -5 -6 6 -1 11 2 17 5 13 3 -3 4 -12 1 -19z m-80
-216 c-2 -56 -5 -68 -17 -65 -10 3 -15 17 -15 42 0 27 4 37 13 34 6 -3 12 0
12 6 0 6 -7 11 -15 11 -8 0 -15 9 -15 20 0 13 7 20 20 20 18 0 19 -6 17 -68z
m-397 -17 c0 -16 -6 -25 -15 -25 -9 0 -15 9 -15 25 0 16 6 25 15 25 9 0 15 -9
15 -25z m120 -25 c0 -5 -16 -10 -35 -10 -19 0 -35 5 -35 10 0 6 16 10 35 10
19 0 35 -4 35 -10z m57 -12 c-3 -8 -6 -5 -6 6 -1 11 2 17 5 13 3 -3 4 -12 1
-19z m173 -38 c0 -5 -9 -10 -20 -10 -11 0 -20 5 -20 10 0 6 9 10 20 10 11 0
20 -4 20 -10z m50 0 c0 -5 -9 -10 -20 -10 -11 0 -20 5 -20 10 0 6 9 10 20 10
11 0 20 -4 20 -10z m-182 -67 c-16 -2 -40 -2 -55 0 -16 2 -3 4 27 4 30 0 43
-2 28 -4z m-188 -118 c0 -47 -2 -85 -4 -85 -2 0 -11 -3 -19 -6 -13 -5 -16 9
-19 80 -3 86 -2 89 35 95 4 0 7 -37 7 -84z m320 40 c0 -8 -4 -15 -10 -15 -5 0
-10 7 -10 15 0 8 5 15 10 15 6 0 10 -7 10 -15z m110 -5 c0 -5 -4 -10 -10 -10
-5 0 -10 5 -10 10 0 6 5 10 10 10 6 0 10 -4 10 -10z m-607 -7 c-7 -2 -19 -2
-25 0 -7 3 -2 5 12 5 14 0 19 -2 13 -5z m625 -19 c0 -18 -3 -22 -9 -13 -6 10
-9 11 -9 2 0 -9 -22 -13 -75 -13 -60 0 -75 3 -75 15 0 12 16 15 80 15 47 0 80
4 80 10 0 6 2 10 4 10 2 0 4 -12 4 -26z m-3 -51 c3 -10 -15 -13 -70 -13 -64 0
-94 8 -81 21 3 2 36 4 75 4 47 0 72 -4 76 -12z m-5 -38 c0 -12 -15 -15 -75
-15 -60 0 -75 3 -75 15 0 12 15 15 75 15 60 0 75 -3 75 -15z m-35 -35 c3 -5 1
-10 -4 -10 -6 0 -11 5 -11 10 0 6 2 10 4 10 3 0 8 -4 11 -10z m45 0 c0 -5 -4
-10 -10 -10 -5 0 -10 5 -10 10 0 6 5 10 10 10 6 0 10 -4 10 -10z"/>
<path d="M567 1374 c-4 -4 -7 -55 -7 -112 0 -58 3 -102 7 -99 3 4 7 46 7 94 1
82 2 88 22 91 21 3 22 -1 22 -83 0 -47 3 -89 6 -92 3 -4 6 35 6 85 0 85 2 92
20 92 18 0 19 -6 17 -86 -1 -47 1 -88 5 -90 5 -3 8 36 8 85 l0 91 31 0 c17 0
28 4 24 10 -3 6 0 10 8 10 8 0 17 -12 21 -27 3 -16 14 -58 24 -94 15 -59 20
-65 37 -58 17 6 17 8 3 8 -16 1 -18 11 -18 75 0 69 2 75 23 79 22 4 22 4 0 6
-12 0 -29 -6 -37 -15 -13 -13 -16 -13 -16 -1 0 26 -29 42 -51 29 -23 -15 -146
-16 -151 -1 -2 5 -7 7 -11 3z"/>
<path d="M859 1339 c-1 -8 -2 -44 -3 -81 -1 -59 1 -68 17 -68 13 0 16 5 12 23
-8 31 17 54 35 32 10 -12 16 -13 26 -4 10 8 14 8 14 1 0 -6 7 -9 15 -6 11 5
15 -1 15 -25 0 -21 -5 -31 -15 -31 -8 0 -18 0 -22 -1 -4 0 -9 4 -11 9 -2 6 6
8 19 5 14 -4 20 -2 16 4 -4 6 -24 11 -44 11 -32 0 -35 -2 -20 -12 9 -7 14 -16
10 -19 -3 -4 -12 -2 -19 4 -8 6 -14 7 -18 0 -4 -6 -13 -8 -21 -4 -8 3 -15 1
-15 -5 0 -5 33 -9 75 -8 l75 1 0 68 c0 37 -3 67 -7 68 -42 4 -63 3 -63 -3 0
-4 0 -11 0 -15 0 -5 8 -9 18 -9 9 -1 23 -2 30 -3 6 -1 12 -5 12 -9 0 -5 -15
-6 -32 -4 -18 2 -49 4 -68 4 -19 0 -27 2 -17 5 9 2 17 13 17 24 0 11 -7 19
-17 20 -16 0 -16 1 0 8 17 6 17 8 3 20 -13 11 -16 11 -17 0z"/>
<path d="M742 1320 c3 -8 11 -48 18 -87 7 -40 17 -73 22 -73 4 0 8 3 8 8 -1
18 -39 155 -46 160 -4 4 -5 0 -2 -8z"/>
<path d="M720 1305 c-3 -19 2 -140 6 -144 2 -3 8 0 13 5 5 5 3 40 -4 79 -7 39
-14 66 -15 60z"/>
<path d="M318 1293 c7 -3 16 -2 19 1 4 3 -2 6 -13 5 -11 0 -14 -3 -6 -6z"/>
<path d="M315 1200 c-3 -5 1 -10 9 -10 9 0 16 5 16 10 0 6 -4 10 -9 10 -6 0
-13 -4 -16 -10z"/>
<path d="M318 1153 c7 -3 16 -2 19 1 4 3 -2 6 -13 5 -11 0 -14 -3 -6 -6z"/>
<path d="M388 1153 c7 -3 16 -2 19 1 4 3 -2 6 -13 5 -11 0 -14 -3 -6 -6z"/>
<path d="M663 1063 c-9 -7 -34 -13 -55 -13 -21 0 -38 -4 -38 -10 0 -5 17 -10
39 -10 34 0 39 -3 39 -25 0 -22 -5 -25 -39 -25 -32 0 -39 -3 -39 -20 0 -33
-21 -22 -37 20 -9 22 -23 40 -32 41 -145 10 -176 0 -184 -56 -2 -16 -2 -24 0
-17 3 7 12 10 22 7 10 -3 41 -6 69 -6 29 -1 52 -5 52 -10 0 -4 -20 -6 -45 -4
-25 2 -45 -1 -45 -6 0 -5 27 -9 59 -9 54 0 60 2 58 20 -1 18 -8 20 -74 20 -65
0 -73 2 -73 19 0 17 9 20 83 23 89 4 99 2 77 -13 -10 -5 -11 -12 -5 -16 6 -5
10 -16 11 -25 0 -10 1 -33 2 -50 l2 -33 69 -3 c62 -2 71 -1 85 20 9 12 16 17
16 10 0 -26 19 -10 29 26 l10 37 -2 -37 c-2 -21 2 -38 8 -39 5 0 1 -4 -10 -9
-14 -6 -6 -8 27 -7 l48 2 0 93 c0 66 3 92 13 93 6 0 -1 5 -18 10 -46 15 -103
15 -122 2z m86 -9 c17 -4 31 -13 31 -20 0 -20 -38 -17 -43 4 -3 11 -5 7 -6
-10 -2 -40 -21 -45 -22 -6 0 18 -3 27 -6 21 -5 -15 -53 -18 -53 -4 0 5 12 12
28 14 15 2 30 5 33 6 4 0 21 -2 38 -5z m-57 -89 c3 -47 0 -55 -14 -55 -15 0
-18 9 -18 55 0 41 4 55 14 55 10 0 15 -16 18 -55z m86 -18 c3 -52 1 -57 -18
-57 -18 0 -20 6 -20 61 0 52 2 60 18 57 13 -2 18 -15 20 -61z m-48 23 c0 -5
-4 -10 -9 -10 -6 0 -13 5 -16 10 -3 6 1 10 9 10 9 0 16 -4 16 -10z m-110 -10
c0 -5 -4 -10 -10 -10 -5 0 -10 5 -10 10 0 6 5 10 10 10 6 0 10 -4 10 -10z
m-70 -30 c0 -5 -4 -10 -10 -10 -5 0 -10 5 -10 10 0 6 5 10 10 10 6 0 10 -4 10
-10z m100 -10 c0 -5 -18 -10 -40 -10 -22 0 -40 5 -40 10 0 6 18 10 40 10 22 0
40 -4 40 -10z m0 -30 c0 -5 -18 -10 -39 -10 -22 0 -43 5 -46 10 -4 6 12 10 39
10 25 0 46 -4 46 -10z"/>
<path d="M883 1068 c-23 -11 -31 -28 -14 -28 12 0 24 -32 14 -39 -4 -3 -5 -37
-2 -76 3 -38 6 -64 7 -57 1 6 13 12 26 12 22 0 26 6 31 48 4 26 11 63 16 82
14 54 12 75 -5 61 -10 -8 -16 -9 -21 -1 -8 12 -23 12 -52 -2z m47 -93 c0 -78
-2 -85 -20 -85 -18 0 -20 7 -20 55 0 43 3 55 16 55 14 0 14 1 0 16 -22 22 -20
44 4 44 18 0 20 -7 20 -85z"/>
<path d="M497 1051 c-3 -13 -1 -18 9 -14 7 2 10 11 7 19 -7 19 -10 18 -16 -5z"/>
<path d="M820 1005 c0 -51 3 -65 15 -65 9 0 15 10 16 23 0 12 2 32 3 45 2 14
-3 22 -13 23 -10 0 -12 2 -3 6 17 7 15 33 -3 33 -12 0 -15 -14 -15 -65z"/>
<path d="M560 1010 c0 -5 5 -10 11 -10 5 0 7 5 4 10 -3 6 -8 10 -11 10 -2 0
-4 -4 -4 -10z"/>
<path d="M595 1010 c-3 -5 3 -10 15 -10 12 0 18 5 15 10 -3 6 -10 10 -15 10
-5 0 -12 -4 -15 -10z"/>
<path d="M820 889 c0 -22 4 -30 16 -27 8 2 15 6 15 11 -1 4 -1 16 -1 27 0 11
-7 20 -15 20 -10 0 -15 -10 -15 -31z"/>
<path d="M337 903 c-10 -9 -9 -33 1 -33 4 0 8 9 9 20 2 21 0 24 -10 13z"/>
<path d="M515 340 c-3 -5 -1 -10 4 -10 6 0 11 5 11 10 0 6 -2 10 -4 10 -3 0
-8 -4 -11 -10z"/>
<path d="M1838 789 c-177 -26 -342 -91 -426 -168 -18 -17 -44 -31 -56 -31 -13
0 -35 -9 -50 -21 -32 -25 -35 -75 -7 -110 34 -44 51 -87 61 -156 5 -37 14 -69
20 -71 5 -2 10 -10 10 -18 0 -19 19 -18 26 1 5 13 34 15 175 15 l169 0 0 -50
c0 -43 3 -50 20 -50 17 0 20 7 20 44 0 35 -4 45 -20 49 -11 3 -20 12 -20 21 0
14 -23 16 -193 16 l-194 0 -1 49 c-1 53 -20 108 -52 148 -25 32 -27 89 -2 101
9 5 31 12 49 15 27 5 36 2 53 -20 18 -24 21 -38 18 -113 l-3 -85 165 0 165 -1
-157 3 -158 4 0 39 0 40 284 0 285 0 4 -27 4 -28 2 28 c1 27 2 27 68 27 66 0
66 0 48 -20 -35 -39 -28 -47 45 -49 79 -2 97 14 53 49 l-26 20 197 0 196 0 0
-40 0 -40 -159 0 c-119 0 -160 3 -164 13 -2 6 -4 -15 -4 -48 0 -44 1 -49 4
-18 l4 43 165 0 164 0 0 97 c0 77 3 100 17 115 16 18 16 18 0 12 -24 -9 -47
-56 -47 -94 l0 -30 -195 0 c-204 0 -227 -6 -160 -40 l30 -15 -38 -3 c-20 -2
-52 -2 -70 0 l-32 3 31 14 c24 11 30 20 29 42 -2 34 -15 52 -15 21 l0 -22
-355 0 -355 0 0 41 c0 31 -6 47 -29 70 l-29 29 29 24 c63 53 213 123 304 141
233 46 462 39 649 -20 45 -14 97 -34 116 -45 19 -10 46 -24 60 -30 14 -6 46
-29 72 -51 27 -23 57 -39 72 -39 32 0 61 -40 52 -72 -3 -13 -17 -36 -30 -51
-27 -31 -51 -116 -44 -157 2 -17 8 -3 16 40 7 41 23 80 41 106 38 54 45 78 30
106 -17 31 -39 47 -67 48 -13 0 -43 16 -65 36 -88 75 -256 139 -432 163 -88
13 -283 13 -367 0z"/>
<path d="M597 750 c-5 -19 25 -65 36 -54 3 3 1 18 -3 34 -4 16 -6 31 -2 34 3
3 -2 6 -10 6 -9 0 -18 -9 -21 -20z m23 -16 c0 -8 -5 -12 -10 -9 -6 4 -8 11 -5
16 9 14 15 11 15 -7z"/>
<path d="M732 723 c4 -21 33 -25 33 -3 0 8 -8 16 -18 18 -14 3 -18 -1 -15 -15z
m28 -3 c0 -5 -4 -10 -10 -10 -5 0 -10 5 -10 10 0 6 5 10 10 10 6 0 10 -4 10
-10z"/>
<path d="M347 723 c-10 -18 -7 -133 2 -133 7 0 11 28 11 70 0 66 -3 80 -13 63z"/>
<path d="M607 679 c7 -7 15 -10 18 -7 3 3 -2 9 -12 12 -14 6 -15 5 -6 -5z"/>
<path d="M735 590 c-3 -5 1 -10 9 -10 9 0 16 5 16 10 0 6 -4 10 -9 10 -6 0
-13 -4 -16 -10z"/>
<path d="M2152 584 c-20 -14 -57 -82 -49 -90 3 -3 16 14 29 38 21 38 28 43 63
46 39 3 41 1 63 -43 12 -25 22 -48 22 -50 0 -3 -18 -5 -41 -5 -22 0 -38 -4
-35 -8 2 -4 23 -6 45 -4 33 3 41 8 41 24 0 29 -41 98 -59 99 -9 1 -26 3 -38 4
-12 1 -31 -4 -41 -11z"/>
<path d="M733 553 c9 -2 23 -2 30 0 6 3 -1 5 -18 5 -16 0 -22 -2 -12 -5z"/>
<path d="M2100 476 c0 -2 14 -6 30 -8 17 -3 30 -1 30 4 0 4 -13 8 -30 8 -16 0
-30 -2 -30 -4z"/>
<path d="M1850 410 c0 -18 6 -20 78 -18 69 2 71 2 20 5 -32 2 -58 8 -58 13 0
5 26 11 58 13 51 3 49 3 -20 5 -72 2 -78 0 -78 -18z m30 0 c0 -5 -4 -10 -10
-10 -5 0 -10 5 -10 10 0 6 5 10 10 10 6 0 10 -4 10 -10z"/>
<path d="M324 355 l1 -45 47 0 48 0 0 45 0 45 -48 0 -48 0 0 -45z m71 26 c6
-1 3 -6 -5 -11 -13 -9 -13 -10 0 -10 13 0 13 -1 0 -10 -8 -5 -11 -10 -7 -10 5
0 5 -5 2 -11 -5 -6 -12 -4 -22 8 -8 10 -11 12 -7 4 5 -9 3 -12 -4 -7 -9 5 -10
36 -3 53 1 1 9 0 19 -2 9 -2 22 -4 27 -4z"/>
<path d="M618 355 c-3 -42 -2 -45 22 -46 l25 -1 -25 -8 -25 -8 26 -1 c25 -1
26 1 25 54 0 50 -2 55 -22 55 -19 0 -23 -7 -26 -45z"/>
<path d="M690 385 c0 -8 4 -15 10 -15 5 0 7 7 4 15 -4 8 -8 15 -10 15 -2 0 -4
-7 -4 -15z"/>
<path d="M693 325 c0 -22 2 -30 4 -17 2 12 2 30 0 40 -3 9 -5 -1 -4 -23z"/>
<path d="M1763 305 c0 -22 2 -30 4 -17 2 12 2 30 0 40 -3 9 -5 -1 -4 -23z"/>
<path d="M1791 288 c1 -17 3 -18 6 -6 4 16 26 18 231 21 l227 2 -232 3 -233 2
1 -22z"/>
<path d="M320 270 c0 -5 23 -10 50 -10 28 0 50 5 50 10 0 6 -22 10 -50 10 -27
0 -50 -4 -50 -10z"/>
<path d="M620 270 c0 -5 11 -10 25 -10 14 0 25 5 25 10 0 6 -11 10 -25 10 -14
0 -25 -4 -25 -10z"/>
<path d="M1790 245 c0 -13 32 -15 230 -15 198 0 230 2 230 15 0 13 -32 15
-230 15 -198 0 -230 -2 -230 -15z"/>
<path d="M2287 240 c-3 -11 -11 -19 -19 -18 -9 2 -14 -11 -16 -44 -3 -43 -1
-48 17 -48 18 0 21 6 21 50 l0 50 175 0 c149 0 175 -2 175 -15 0 -8 4 -15 9
-15 8 0 41 43 41 55 0 3 -89 5 -199 5 -191 0 -199 -1 -204 -20z"/>
<path d="M68 243 c23 -2 59 -2 80 0 20 2 1 4 -43 4 -44 0 -61 -2 -37 -4z"/>
<path d="M1108 243 c34 -2 90 -2 125 0 34 2 6 3 -63 3 -69 0 -97 -1 -62 -3z"/>
<path d="M2718 243 c7 -3 16 -2 19 1 4 3 -2 6 -13 5 -11 0 -14 -3 -6 -6z"/>
<path d="M2813 243 c37 -2 96 -2 130 0 34 2 4 3 -68 3 -71 0 -99 -1 -62 -3z"/>
</g>
</svg>
